# xmcd CD database file generated by Grip 3.0.1
# 
# Track frame offsets:
#       150
#       28002
#       47385
#       65745
#       89745
#       109312
#       138717
#       166865
#       201852
#       230672
#       257595
#       274627
# 
# Disc length: 4112 seconds
# 
# Revision: 5
# Processed by: cddbd v1.4PL0 Copyright (c) Steve Scherf et al.
# Submitted via: Grip 3.0.1
# 
DISCID=af100e0c
DTITLE=Various Artist - Jointz From Back In Da Day
DYEAR=1994
DGENRE=Funk
TTITLE0=The Gap Band - Party Train
TTITLE1=Rick James - Give It To Me Baby
TTITLE2=The Dazz Band - Let It Whip
TTITLE3=Afrika Bambaataa and Soul Sonic Force - Planet Rock
TTITLE4=L.A. Dream Team - The Dream Team Is In The House
TTITLE5=Grandmaster Flash and The Furious Five - The Message
TTITLE6=World Famous Supreme Team - Hey DJ
TTITLE7=Hashim - Al Naafyish (The Soul)
TTITLE8=Newcleus - Jam On It
TTITLE9=Sexual Harrasment - I Need A Freak
TTITLE10=Rob Base and D.J. E-Z Rock - Joy and Pain
TTITLE11=Grandmaster Flash and Melle Mel - White Lines
EXTD=
EXTT0=
EXTT1=
EXTT2=
EXTT3=
EXTT4=
EXTT5=
EXTT6=
EXTT7=
EXTT8=
EXTT9=
EXTT10=
EXTT11=
PLAYORDER=
